G04*
G04 #@! TF.GenerationSoftware,Altium Limited,Altium Designer,21.1.0 (24)*
G04*
G04 Layer_Color=32768*
%FSLAX25Y25*%
%MOIN*%
G70*
G04*
G04 #@! TF.SameCoordinates,F511F5FD-4682-4DAA-AC6C-A49189F54C52*
G04*
G04*
G04 #@! TF.FilePolarity,Positive*
G04*
G01*
G75*
%ADD12C,0.00787*%
%ADD44C,0.00394*%
%ADD45C,0.00197*%
D12*
X56150Y54425D02*
Y57575D01*
X49850D02*
X56150D01*
X49850Y54425D02*
Y57575D01*
Y54425D02*
X56150D01*
X159425Y90150D02*
X162575D01*
X159425Y83850D02*
Y90150D01*
Y83850D02*
X162575D01*
Y90150D01*
X61150Y63425D02*
Y66575D01*
X54850D02*
X61150D01*
X54850Y63425D02*
Y66575D01*
Y63425D02*
X61150D01*
X169287Y145000D02*
X211413D01*
X169287Y95000D02*
Y145000D01*
Y95000D02*
X211413D01*
Y145000D01*
X169287Y92500D02*
X211413D01*
X169287Y42500D02*
Y92500D01*
Y42500D02*
X211413D01*
Y92500D01*
D44*
X61740Y42240D02*
Y84760D01*
X104260Y42240D02*
Y84760D01*
X61740D02*
X104260D01*
X61740Y42240D02*
X104260D01*
X81032Y63500D02*
X84969D01*
X83000Y61532D02*
Y65469D01*
X27868Y35379D02*
X31805D01*
X29837Y33410D02*
Y37347D01*
X37417Y35000D02*
X39583D01*
X38500Y33917D02*
Y36083D01*
X28032Y50500D02*
X31969D01*
X30000Y48531D02*
Y52469D01*
X36917Y50500D02*
X39083D01*
X38000Y49417D02*
Y51583D01*
X154000Y115532D02*
Y119468D01*
X152032Y117500D02*
X155968D01*
X138194Y115622D02*
Y119559D01*
X136225Y117591D02*
X140162D01*
X92073Y115486D02*
Y119423D01*
X90104Y117455D02*
X94041D01*
X92313Y108388D02*
Y110553D01*
X91230Y109470D02*
X93395D01*
X76908Y115564D02*
Y119501D01*
X74939Y117533D02*
X78876D01*
X77167Y108466D02*
Y110631D01*
X76085Y109548D02*
X78250D01*
X62000Y115532D02*
Y119468D01*
X60031Y117500D02*
X63968D01*
X62000Y108417D02*
Y110583D01*
X60917Y109500D02*
X63083D01*
X46565Y115511D02*
Y119448D01*
X44596Y117479D02*
X48533D01*
X46565Y108396D02*
Y110562D01*
X45482Y109479D02*
X47647D01*
X30933Y115532D02*
Y119468D01*
X28964Y117500D02*
X32901D01*
X31308Y108417D02*
Y110583D01*
X30225Y109500D02*
X32390D01*
X27513Y94363D02*
X31450D01*
X29481Y92395D02*
Y96332D01*
X36383Y94604D02*
X38548D01*
X37466Y93521D02*
Y95686D01*
X105417Y80827D02*
X107583D01*
X106500Y79744D02*
Y81910D01*
X28220Y79609D02*
X32157D01*
X30189Y77640D02*
Y81577D01*
X37106Y79609D02*
X39271D01*
X38189Y78526D02*
Y80692D01*
X28032Y65000D02*
X31969D01*
X30000Y63032D02*
Y66969D01*
X36917Y65000D02*
X39083D01*
X38000Y63917D02*
Y66083D01*
X107217Y115461D02*
Y119398D01*
X105248Y117430D02*
X109185D01*
X106976Y108363D02*
Y110528D01*
X105894Y109446D02*
X108059D01*
X118000Y50982D02*
Y54919D01*
X116032Y52951D02*
X119968D01*
X110016Y52108D02*
Y54274D01*
X108933Y53191D02*
X111098D01*
X137193Y109562D02*
X139358D01*
X138275Y108479D02*
Y110644D01*
X58500Y56417D02*
Y58583D01*
X57417Y57500D02*
X59583D01*
X120178Y117557D02*
X124115D01*
X122146Y115588D02*
Y119525D01*
X120970Y109643D02*
X123135D01*
X122053Y108561D02*
Y110726D01*
X153186Y109944D02*
X155351D01*
X154269Y108862D02*
Y111027D01*
X143000Y76032D02*
Y79969D01*
X141032Y78000D02*
X144968D01*
X128236Y67173D02*
X157764D01*
X128236Y88827D02*
X157764D01*
Y67173D02*
Y88827D01*
X128236Y67173D02*
Y88827D01*
X207740Y19516D02*
Y23453D01*
X205772Y21484D02*
X209709D01*
X194740Y19516D02*
Y23453D01*
X192772Y21484D02*
X196709D01*
X181740Y19516D02*
Y23453D01*
X179772Y21484D02*
X183709D01*
X168240Y19516D02*
Y23453D01*
X166272Y21484D02*
X170209D01*
D45*
X24045Y29237D02*
Y41520D01*
X35628Y29237D02*
Y41520D01*
X24045D02*
X35628D01*
X24045Y29237D02*
X35628D01*
X36728Y31457D02*
Y38543D01*
X40272Y31457D02*
Y38543D01*
X36728Y31457D02*
X40272D01*
X36728Y38543D02*
X40272D01*
X24209Y44358D02*
Y56642D01*
X35791Y44358D02*
Y56642D01*
X24209D02*
X35791D01*
X24209Y44358D02*
X35791D01*
X36228Y46957D02*
Y54043D01*
X39772Y46957D02*
Y54043D01*
X36228Y46957D02*
X39772D01*
X36228Y54043D02*
X39772D01*
X147858Y123291D02*
X160142D01*
X147858Y111709D02*
X160142D01*
Y123291D01*
X147858Y111709D02*
Y123291D01*
X132052Y123382D02*
X144335D01*
X132052Y111800D02*
X144335D01*
Y123382D01*
X132052Y111800D02*
Y123382D01*
X85931Y123246D02*
X98214D01*
X85931Y111663D02*
X98214D01*
Y123246D01*
X85931Y111663D02*
Y123246D01*
X88769Y111242D02*
X95856D01*
X88769Y107699D02*
X95856D01*
X88769D02*
Y111242D01*
X95856Y107699D02*
Y111242D01*
X70766Y123324D02*
X83049D01*
X70766Y111741D02*
X83049D01*
Y123324D01*
X70766Y111741D02*
Y123324D01*
X73624Y111320D02*
X80711D01*
X73624Y107777D02*
X80711D01*
X73624D02*
Y111320D01*
X80711Y107777D02*
Y111320D01*
X55858Y123291D02*
X68142D01*
X55858Y111709D02*
X68142D01*
Y123291D01*
X55858Y111709D02*
Y123291D01*
X58457Y111272D02*
X65543D01*
X58457Y107728D02*
X65543D01*
X58457D02*
Y111272D01*
X65543Y107728D02*
Y111272D01*
X40423Y123271D02*
X52706D01*
X40423Y111688D02*
X52706D01*
Y123271D01*
X40423Y111688D02*
Y123271D01*
X43021Y111251D02*
X50108D01*
X43021Y107708D02*
X50108D01*
X43021D02*
Y111251D01*
X50108Y107708D02*
Y111251D01*
X24791Y123291D02*
X37075D01*
X24791Y111709D02*
X37075D01*
Y123291D01*
X24791Y111709D02*
Y123291D01*
X27764Y111272D02*
X34851D01*
X27764Y107728D02*
X34851D01*
X27764D02*
Y111272D01*
X34851Y107728D02*
Y111272D01*
X23690Y88222D02*
Y100505D01*
X35273Y88222D02*
Y100505D01*
X23690D02*
X35273D01*
X23690Y88222D02*
X35273D01*
X35694Y91060D02*
Y98147D01*
X39237Y91060D02*
Y98147D01*
X35694Y91060D02*
X39237D01*
X35694Y98147D02*
X39237D01*
X104728Y77284D02*
Y84370D01*
X108272Y77284D02*
Y84370D01*
X104728Y77284D02*
X108272D01*
X104728Y84370D02*
X108272D01*
X24397Y73467D02*
Y85751D01*
X35980Y73467D02*
Y85751D01*
X24397D02*
X35980D01*
X24397Y73467D02*
X35980D01*
X36417Y76066D02*
Y83152D01*
X39960Y76066D02*
Y83152D01*
X36417Y76066D02*
X39960D01*
X36417Y83152D02*
X39960D01*
X24209Y58858D02*
Y71142D01*
X35791Y58858D02*
Y71142D01*
X24209D02*
X35791D01*
X24209Y58858D02*
X35791D01*
X36228Y61457D02*
Y68543D01*
X39772Y61457D02*
Y68543D01*
X36228Y61457D02*
X39772D01*
X36228Y68543D02*
X39772D01*
X101075Y123221D02*
X113358D01*
X101075Y111639D02*
X113358D01*
Y123221D01*
X101075Y111639D02*
Y123221D01*
X103433Y111217D02*
X110520D01*
X103433Y107674D02*
X110520D01*
X103433D02*
Y111217D01*
X110520Y107674D02*
Y111217D01*
X112209Y59092D02*
X123791D01*
X112209Y46809D02*
X123791D01*
X112209D02*
Y59092D01*
X123791Y46809D02*
Y59092D01*
X108244Y49648D02*
X111787D01*
X108244Y56734D02*
X111787D01*
X108244Y49648D02*
Y56734D01*
X111787Y49648D02*
Y56734D01*
X141819Y107790D02*
Y111333D01*
X134732Y107790D02*
Y111333D01*
Y107790D02*
X141819D01*
X134732Y111333D02*
X141819D01*
X56728Y53957D02*
X60272D01*
X56728Y61043D02*
X60272D01*
X56728Y53957D02*
Y61043D01*
X60272Y53957D02*
Y61043D01*
X116005Y111765D02*
Y123348D01*
X128288Y111765D02*
Y123348D01*
X116005Y111765D02*
X128288D01*
X116005Y123348D02*
X128288D01*
X125596Y107872D02*
Y111415D01*
X118509Y107872D02*
Y111415D01*
Y107872D02*
X125596D01*
X118509Y111415D02*
X125596D01*
X157812Y108173D02*
Y111716D01*
X150725Y108173D02*
Y111716D01*
Y108173D02*
X157812D01*
X150725Y111716D02*
X157812D01*
X203803Y13807D02*
X211677D01*
X203803Y29161D02*
X211677D01*
X203803Y13807D02*
Y29161D01*
X211677Y13807D02*
Y29161D01*
X190803Y13807D02*
X198677D01*
X190803Y29161D02*
X198677D01*
X190803Y13807D02*
Y29161D01*
X198677Y13807D02*
Y29161D01*
X177803Y13807D02*
X185677D01*
X177803Y29161D02*
X185677D01*
X177803Y13807D02*
Y29161D01*
X185677Y13807D02*
Y29161D01*
X164303Y13807D02*
X172177D01*
X164303Y29161D02*
X172177D01*
X164303Y13807D02*
Y29161D01*
X172177Y13807D02*
Y29161D01*
M02*
