G04*
G04 #@! TF.GenerationSoftware,Altium Limited,Altium Designer,21.1.0 (24)*
G04*
G04 Layer_Physical_Order=2*
G04 Layer_Color=16711680*
%FSLAX25Y25*%
%MOIN*%
G70*
G04*
G04 #@! TF.SameCoordinates,F511F5FD-4682-4DAA-AC6C-A49189F54C52*
G04*
G04*
G04 #@! TF.FilePolarity,Positive*
G04*
G01*
G75*
%ADD37C,0.05000*%
%ADD38C,0.03000*%
%ADD39R,0.05906X0.05906*%
%ADD40R,0.05906X0.05906*%
%ADD41C,0.01770*%
%ADD42C,0.05000*%
G36*
X213000Y147000D02*
Y-0D01*
X0Y0D01*
X-0Y0D01*
Y147000D01*
X213000D01*
X213000Y147000D01*
D02*
G37*
%LPC*%
G36*
X141453Y139132D02*
X133547D01*
Y131227D01*
X135644D01*
Y121075D01*
X135839Y120100D01*
X136391Y119273D01*
X137218Y118720D01*
X138194Y118526D01*
X139169Y118720D01*
X139996Y119273D01*
X140549Y120100D01*
X140743Y121075D01*
Y131227D01*
X141453D01*
Y139132D01*
D02*
G37*
G36*
X126099D02*
X118193D01*
Y131227D01*
X119597D01*
Y121041D01*
X119791Y120065D01*
X120344Y119238D01*
X121171Y118686D01*
X122146Y118492D01*
X123122Y118686D01*
X123949Y119238D01*
X124501Y120065D01*
X124695Y121041D01*
Y131227D01*
X126099D01*
Y139132D01*
D02*
G37*
G36*
X81120Y139001D02*
X73215D01*
Y131096D01*
X74359D01*
Y121017D01*
X74553Y120041D01*
X75105Y119214D01*
X75932Y118662D01*
X76908Y118468D01*
X77883Y118662D01*
X78710Y119214D01*
X79263Y120041D01*
X79457Y121017D01*
Y131096D01*
X81120D01*
Y139001D01*
D02*
G37*
G36*
X157953Y139132D02*
X150047D01*
Y131227D01*
X151451D01*
Y120984D01*
X151645Y120009D01*
X152198Y119182D01*
X153024Y118629D01*
X154000Y118435D01*
X154975Y118629D01*
X155802Y119182D01*
X156355Y120009D01*
X156549Y120984D01*
Y131227D01*
X157953D01*
Y139132D01*
D02*
G37*
G36*
X66287Y139049D02*
X58382D01*
Y131143D01*
X59451D01*
Y120984D01*
X59645Y120009D01*
X60198Y119182D01*
X61024Y118629D01*
X62000Y118435D01*
X62976Y118629D01*
X63802Y119182D01*
X64355Y120009D01*
X64549Y120984D01*
Y131143D01*
X66287D01*
Y139049D01*
D02*
G37*
G36*
X35260Y138953D02*
X27355D01*
Y131047D01*
X28384D01*
Y120984D01*
X28578Y120009D01*
X29130Y119182D01*
X29957Y118629D01*
X30933Y118435D01*
X31908Y118629D01*
X32735Y119182D01*
X33288Y120009D01*
X33482Y120984D01*
Y131047D01*
X35260D01*
Y138953D01*
D02*
G37*
G36*
X50352Y139049D02*
X42447D01*
Y131143D01*
X44016D01*
Y120964D01*
X44210Y119988D01*
X44762Y119161D01*
X45589Y118608D01*
X46565Y118414D01*
X47540Y118608D01*
X48367Y119161D01*
X48920Y119988D01*
X49114Y120964D01*
Y131143D01*
X50352D01*
Y139049D01*
D02*
G37*
G36*
X96266Y138953D02*
X88360D01*
Y131047D01*
X89524D01*
Y120939D01*
X89718Y119963D01*
X90270Y119137D01*
X91097Y118584D01*
X92073Y118390D01*
X93048Y118584D01*
X93875Y119137D01*
X94428Y119963D01*
X94621Y120939D01*
Y131047D01*
X96266D01*
Y138953D01*
D02*
G37*
G36*
X111169Y139132D02*
X103264D01*
Y131227D01*
X104667D01*
Y120914D01*
X104861Y119939D01*
X105414Y119112D01*
X106241Y118559D01*
X107217Y118365D01*
X108192Y118559D01*
X109019Y119112D01*
X109571Y119939D01*
X109766Y120914D01*
Y131227D01*
X111169D01*
Y139132D01*
D02*
G37*
G36*
X16458Y97594D02*
X8553D01*
Y89689D01*
X16458D01*
Y91814D01*
X25997D01*
X26973Y92009D01*
X27800Y92561D01*
X28352Y93388D01*
X28546Y94363D01*
X28352Y95339D01*
X27800Y96166D01*
X26973Y96718D01*
X25997Y96912D01*
X16458D01*
Y97594D01*
D02*
G37*
G36*
X16595Y83562D02*
X8689D01*
Y75656D01*
X16595D01*
Y77060D01*
X26704D01*
X27680Y77254D01*
X28507Y77807D01*
X29059Y78634D01*
X29254Y79609D01*
X29059Y80585D01*
X28507Y81411D01*
X27680Y81964D01*
X26704Y82158D01*
X16595D01*
Y83562D01*
D02*
G37*
G36*
X118453Y80953D02*
X110547D01*
Y73047D01*
X118453D01*
Y80953D01*
D02*
G37*
G36*
X16453Y68953D02*
X8547D01*
Y61047D01*
X16453D01*
Y62451D01*
X17824D01*
X17841Y62438D01*
X18085Y61951D01*
X18084Y61949D01*
X17943Y61765D01*
X17854Y61551D01*
X17739Y61351D01*
X17679Y61127D01*
X17590Y60914D01*
X17560Y60684D01*
X17500Y60461D01*
Y60229D01*
X17470Y60000D01*
X17500Y59771D01*
Y59539D01*
X17560Y59316D01*
X17590Y59086D01*
X17679Y58873D01*
X17739Y58649D01*
X17854Y58449D01*
X17943Y58235D01*
X18084Y58051D01*
X18199Y57851D01*
X18363Y57687D01*
X18504Y57504D01*
X18687Y57363D01*
X18851Y57199D01*
X19051Y57084D01*
X19235Y56943D01*
X19449Y56854D01*
X19649Y56739D01*
X19873Y56679D01*
X20086Y56590D01*
X20316Y56560D01*
X20539Y56500D01*
X20771D01*
X21000Y56470D01*
X48000D01*
X48914Y56590D01*
X49765Y56943D01*
X50301Y57354D01*
X50307Y57358D01*
X50313Y57363D01*
X50496Y57504D01*
X50655Y57662D01*
X50795Y57846D01*
X50959Y58009D01*
X51075Y58210D01*
X51216Y58393D01*
X51304Y58607D01*
X51420Y58807D01*
X51480Y59031D01*
X51568Y59245D01*
X51599Y59474D01*
X51658Y59698D01*
Y59929D01*
X51688Y60158D01*
X51658Y60388D01*
Y60619D01*
X51599Y60843D01*
X51568Y61072D01*
X51480Y61286D01*
X51420Y61509D01*
X51304Y61710D01*
X51216Y61923D01*
X51075Y62107D01*
X50959Y62307D01*
X50795Y62471D01*
X50655Y62655D01*
X50471Y62795D01*
X50307Y62959D01*
X50107Y63075D01*
X49923Y63216D01*
X49710Y63304D01*
X49509Y63420D01*
X49286Y63480D01*
X49072Y63568D01*
X48843Y63599D01*
X48619Y63658D01*
X48388D01*
X48158Y63689D01*
X47929Y63658D01*
X47698D01*
X47474Y63599D01*
X47245Y63568D01*
X47153Y63530D01*
X29071D01*
X28835Y63971D01*
X28871Y64025D01*
X29065Y65000D01*
X28871Y65975D01*
X28318Y66802D01*
X27491Y67355D01*
X26516Y67549D01*
X16453D01*
Y68953D01*
D02*
G37*
G36*
X140469Y56644D02*
X132563D01*
Y48738D01*
X140469D01*
Y56644D01*
D02*
G37*
G36*
X16453Y54453D02*
X8547D01*
Y46547D01*
X16453D01*
Y54453D01*
D02*
G37*
G36*
X54953Y51453D02*
X47047D01*
Y43547D01*
X54953D01*
Y51453D01*
D02*
G37*
G36*
X16453Y38953D02*
X8547D01*
Y31047D01*
X16453D01*
Y38953D01*
D02*
G37*
G36*
X115953Y30953D02*
X108047D01*
Y23047D01*
X115953D01*
Y30953D01*
D02*
G37*
G36*
X102953D02*
X95047D01*
Y23047D01*
X102953D01*
Y30953D01*
D02*
G37*
G36*
X89953D02*
X82047D01*
Y23047D01*
X89953D01*
Y30953D01*
D02*
G37*
G36*
X76953D02*
X69047D01*
Y23047D01*
X76953D01*
Y30953D01*
D02*
G37*
G36*
X63953D02*
X56047D01*
Y23047D01*
X63953D01*
Y30953D01*
D02*
G37*
G36*
X50453D02*
X42547D01*
Y23047D01*
X50453D01*
Y30953D01*
D02*
G37*
G36*
X159453Y22953D02*
X151547D01*
Y15047D01*
X159453D01*
Y22953D01*
D02*
G37*
G36*
X129453Y17953D02*
X121547D01*
Y10047D01*
X129453D01*
Y17953D01*
D02*
G37*
G36*
X115953D02*
X108047D01*
Y10047D01*
X115953D01*
Y17953D01*
D02*
G37*
G36*
X102953D02*
X95047D01*
Y10047D01*
X102953D01*
Y17953D01*
D02*
G37*
G36*
X89953D02*
X82047D01*
Y10047D01*
X89953D01*
Y17953D01*
D02*
G37*
G36*
X76953D02*
X69047D01*
Y10047D01*
X76953D01*
Y17953D01*
D02*
G37*
G36*
X63953D02*
X56047D01*
Y10047D01*
X63953D01*
Y17953D01*
D02*
G37*
G36*
X50453D02*
X42547D01*
Y10047D01*
X50453D01*
Y17953D01*
D02*
G37*
%LPD*%
D37*
X21000Y60000D02*
X48000D01*
X48158Y60158D01*
D38*
X12500Y65000D02*
X26516D01*
X12642Y79609D02*
X26704D01*
X13227Y94363D02*
X25997D01*
X12505Y93642D02*
X13227Y94363D01*
X154000Y120984D02*
Y135180D01*
X137500D02*
X138194Y134486D01*
Y121075D02*
Y134486D01*
X122146Y121041D02*
Y135180D01*
X107217Y120914D02*
Y135180D01*
X92073Y134760D02*
X92313Y135000D01*
X92073Y120939D02*
Y134760D01*
X76908Y134788D02*
X77167Y135048D01*
X76908Y121017D02*
Y134788D01*
X62000Y120984D02*
Y134761D01*
X62335Y135096D01*
X46565Y120964D02*
Y134931D01*
X46399Y135096D02*
X46565Y134931D01*
X30933Y120984D02*
Y134625D01*
X31308Y135000D01*
D39*
X125500Y14000D02*
D03*
X155500Y19000D02*
D03*
X112000Y14000D02*
D03*
Y27000D02*
D03*
X99000Y14000D02*
D03*
Y27000D02*
D03*
X86000Y14000D02*
D03*
Y27000D02*
D03*
X73000Y14000D02*
D03*
Y27000D02*
D03*
X46500D02*
D03*
X60000D02*
D03*
Y14000D02*
D03*
X46500D02*
D03*
X51000Y47500D02*
D03*
X154000Y135180D02*
D03*
X137500D02*
D03*
X122146D02*
D03*
X107217Y135180D02*
D03*
X92313Y135000D02*
D03*
X77167Y135048D02*
D03*
X62335Y135096D02*
D03*
X46399D02*
D03*
X31308Y135000D02*
D03*
X114500Y77000D02*
D03*
D40*
X12500Y35000D02*
D03*
Y50500D02*
D03*
X136516Y52691D02*
D03*
X12505Y93642D02*
D03*
X12500Y65000D02*
D03*
X12642Y79609D02*
D03*
D41*
X212000Y139500D02*
D03*
X209000Y133500D02*
D03*
X212000Y127500D02*
D03*
Y115500D02*
D03*
Y103500D02*
D03*
Y91500D02*
D03*
Y79500D02*
D03*
Y67500D02*
D03*
Y55500D02*
D03*
Y43500D02*
D03*
Y31500D02*
D03*
Y7500D02*
D03*
X209000Y1500D02*
D03*
X206000Y139500D02*
D03*
Y7500D02*
D03*
X203000Y1500D02*
D03*
X200000Y127500D02*
D03*
X197000Y121500D02*
D03*
X200000Y115500D02*
D03*
X197000Y109500D02*
D03*
Y73500D02*
D03*
X200000Y67500D02*
D03*
X197000Y61500D02*
D03*
X200000Y55500D02*
D03*
X197000Y37500D02*
D03*
X200000Y31500D02*
D03*
Y19500D02*
D03*
Y7500D02*
D03*
X197000Y1500D02*
D03*
X194000Y127500D02*
D03*
X191000Y121500D02*
D03*
X194000Y115500D02*
D03*
X191000Y109500D02*
D03*
Y73500D02*
D03*
X194000Y67500D02*
D03*
X191000Y61500D02*
D03*
X194000Y55500D02*
D03*
X191000Y37500D02*
D03*
X194000Y31500D02*
D03*
Y7500D02*
D03*
X191000Y1500D02*
D03*
X188000Y127500D02*
D03*
X185000Y121500D02*
D03*
X188000Y115500D02*
D03*
X185000Y109500D02*
D03*
Y73500D02*
D03*
X188000Y67500D02*
D03*
X185000Y61500D02*
D03*
X188000Y55500D02*
D03*
X185000Y37500D02*
D03*
X188000Y31500D02*
D03*
Y19500D02*
D03*
Y7500D02*
D03*
X185000Y1500D02*
D03*
X182000Y139500D02*
D03*
Y127500D02*
D03*
Y103500D02*
D03*
X179000Y97500D02*
D03*
X182000Y91500D02*
D03*
X179000Y85500D02*
D03*
X182000Y67500D02*
D03*
X179000Y49500D02*
D03*
X182000Y43500D02*
D03*
X179000Y37500D02*
D03*
X182000Y31500D02*
D03*
Y7500D02*
D03*
X179000Y1500D02*
D03*
X176000Y139500D02*
D03*
Y103500D02*
D03*
X173000Y97500D02*
D03*
X176000Y91500D02*
D03*
Y67500D02*
D03*
X173000Y49500D02*
D03*
X176000Y43500D02*
D03*
X173000Y37500D02*
D03*
X176000Y31500D02*
D03*
Y19500D02*
D03*
Y7500D02*
D03*
X173000Y1500D02*
D03*
X170000Y139500D02*
D03*
Y103500D02*
D03*
X167000Y97500D02*
D03*
Y61500D02*
D03*
Y49500D02*
D03*
X170000Y43500D02*
D03*
X167000Y37500D02*
D03*
X170000Y31500D02*
D03*
Y7500D02*
D03*
X167000Y1500D02*
D03*
X164000Y139500D02*
D03*
X161000Y133500D02*
D03*
Y121500D02*
D03*
X164000Y115500D02*
D03*
X161000Y97500D02*
D03*
X164000Y67500D02*
D03*
X161000Y61500D02*
D03*
X164000Y55500D02*
D03*
X161000Y49500D02*
D03*
X164000Y43500D02*
D03*
X161000Y37500D02*
D03*
X164000Y31500D02*
D03*
X161000Y13500D02*
D03*
X164000Y7500D02*
D03*
X161000Y1500D02*
D03*
X158000Y91500D02*
D03*
Y67500D02*
D03*
X155000Y61500D02*
D03*
X158000Y55500D02*
D03*
X155000Y49500D02*
D03*
X158000Y43500D02*
D03*
X155000Y37500D02*
D03*
X158000Y31500D02*
D03*
X155000Y25500D02*
D03*
Y13500D02*
D03*
X158000Y7500D02*
D03*
X155000Y1500D02*
D03*
X149000Y133500D02*
D03*
Y121500D02*
D03*
X152000Y103500D02*
D03*
X149000Y61500D02*
D03*
X152000Y55500D02*
D03*
X149000Y49500D02*
D03*
X152000Y43500D02*
D03*
X149000Y37500D02*
D03*
X152000Y31500D02*
D03*
X149000Y25500D02*
D03*
Y13500D02*
D03*
X152000Y7500D02*
D03*
X149000Y1500D02*
D03*
X146000Y139500D02*
D03*
X143000Y133500D02*
D03*
Y121500D02*
D03*
X146000Y115500D02*
D03*
X143000Y109500D02*
D03*
X146000Y79500D02*
D03*
X143000Y73500D02*
D03*
X146000Y67500D02*
D03*
X143000Y61500D02*
D03*
X146000Y55500D02*
D03*
X143000Y49500D02*
D03*
X146000Y43500D02*
D03*
X143000Y37500D02*
D03*
X146000Y31500D02*
D03*
X143000Y25500D02*
D03*
X146000Y19500D02*
D03*
X143000Y13500D02*
D03*
X146000Y7500D02*
D03*
X143000Y1500D02*
D03*
X140000Y67500D02*
D03*
X137000Y61500D02*
D03*
X140000Y43500D02*
D03*
X137000Y37500D02*
D03*
X140000Y31500D02*
D03*
X137000Y25500D02*
D03*
X140000Y19500D02*
D03*
X137000Y13500D02*
D03*
X140000Y7500D02*
D03*
X137000Y1500D02*
D03*
X131000Y133500D02*
D03*
Y121500D02*
D03*
X134000Y103500D02*
D03*
Y43500D02*
D03*
X131000Y37500D02*
D03*
X134000Y31500D02*
D03*
X131000Y25500D02*
D03*
X134000Y19500D02*
D03*
X131000Y13500D02*
D03*
X134000Y7500D02*
D03*
X131000Y1500D02*
D03*
X128000Y139500D02*
D03*
Y43500D02*
D03*
X125000Y37500D02*
D03*
X128000Y31500D02*
D03*
Y7500D02*
D03*
X125000Y1500D02*
D03*
X122000Y115500D02*
D03*
Y43500D02*
D03*
X119000Y37500D02*
D03*
X122000Y19500D02*
D03*
X119000Y13500D02*
D03*
X122000Y7500D02*
D03*
X119000Y1500D02*
D03*
X116000Y139500D02*
D03*
X113000Y133500D02*
D03*
Y121500D02*
D03*
Y109500D02*
D03*
X116000Y43500D02*
D03*
Y7500D02*
D03*
X113000Y1500D02*
D03*
X107000Y49500D02*
D03*
Y25500D02*
D03*
X110000Y19500D02*
D03*
X107000Y13500D02*
D03*
X110000Y7500D02*
D03*
X107000Y1500D02*
D03*
X101000Y133500D02*
D03*
Y121500D02*
D03*
Y109500D02*
D03*
Y49500D02*
D03*
X104000Y7500D02*
D03*
X101000Y1500D02*
D03*
X98000Y139500D02*
D03*
Y19500D02*
D03*
Y7500D02*
D03*
X95000Y1500D02*
D03*
X92000Y115500D02*
D03*
X89000Y73500D02*
D03*
X92000Y67500D02*
D03*
X89000Y61500D02*
D03*
X92000Y7500D02*
D03*
X89000Y1500D02*
D03*
X86000Y139500D02*
D03*
X83000Y133500D02*
D03*
Y121500D02*
D03*
Y109500D02*
D03*
X86000Y103500D02*
D03*
X83000Y97500D02*
D03*
Y73500D02*
D03*
X86000Y67500D02*
D03*
Y55500D02*
D03*
Y19500D02*
D03*
Y7500D02*
D03*
X83000Y1500D02*
D03*
X80000Y103500D02*
D03*
X77000Y73500D02*
D03*
X80000Y67500D02*
D03*
X77000Y61500D02*
D03*
X80000Y55500D02*
D03*
Y7500D02*
D03*
X77000Y1500D02*
D03*
X71000Y133500D02*
D03*
Y121500D02*
D03*
Y109500D02*
D03*
X74000Y67500D02*
D03*
Y19500D02*
D03*
Y7500D02*
D03*
X71000Y1500D02*
D03*
X68000Y139500D02*
D03*
Y103500D02*
D03*
X65000Y97500D02*
D03*
X68000Y31500D02*
D03*
Y19500D02*
D03*
X65000Y13500D02*
D03*
X68000Y7500D02*
D03*
X65000Y1500D02*
D03*
X62000Y115500D02*
D03*
X59000Y97500D02*
D03*
X62000Y19500D02*
D03*
Y7500D02*
D03*
X59000Y1500D02*
D03*
X56000Y139500D02*
D03*
X53000Y133500D02*
D03*
Y121500D02*
D03*
Y109500D02*
D03*
X56000Y103500D02*
D03*
Y19500D02*
D03*
X53000Y13500D02*
D03*
X56000Y7500D02*
D03*
X53000Y1500D02*
D03*
X50000Y103500D02*
D03*
X47000Y97500D02*
D03*
Y37500D02*
D03*
X50000Y7500D02*
D03*
X47000Y1500D02*
D03*
X41000Y133500D02*
D03*
Y121500D02*
D03*
Y109500D02*
D03*
X44000Y91500D02*
D03*
X41000Y85500D02*
D03*
X44000Y43500D02*
D03*
X41000Y25500D02*
D03*
X44000Y19500D02*
D03*
X41000Y13500D02*
D03*
X44000Y7500D02*
D03*
X41000Y1500D02*
D03*
X38000Y139500D02*
D03*
X35000Y121500D02*
D03*
X38000Y55500D02*
D03*
Y43500D02*
D03*
X35000Y25500D02*
D03*
X38000Y19500D02*
D03*
X35000Y13500D02*
D03*
X38000Y7500D02*
D03*
X35000Y1500D02*
D03*
X29000Y85500D02*
D03*
X32000Y79500D02*
D03*
X29000Y73500D02*
D03*
Y25500D02*
D03*
X32000Y19500D02*
D03*
X29000Y13500D02*
D03*
X32000Y7500D02*
D03*
X29000Y1500D02*
D03*
X26000Y139500D02*
D03*
X23000Y133500D02*
D03*
X26000Y103500D02*
D03*
Y55500D02*
D03*
Y43500D02*
D03*
Y31500D02*
D03*
X23000Y25500D02*
D03*
X26000Y19500D02*
D03*
X23000Y13500D02*
D03*
X26000Y7500D02*
D03*
X23000Y1500D02*
D03*
X20000Y139500D02*
D03*
X17000Y133500D02*
D03*
X20000Y55500D02*
D03*
Y43500D02*
D03*
Y31500D02*
D03*
X17000Y25500D02*
D03*
X20000Y19500D02*
D03*
X17000Y13500D02*
D03*
X20000Y7500D02*
D03*
X17000Y1500D02*
D03*
X14000Y139500D02*
D03*
X11000Y133500D02*
D03*
X14000Y127500D02*
D03*
X11000Y121500D02*
D03*
X14000Y115500D02*
D03*
X11000Y109500D02*
D03*
X14000Y103500D02*
D03*
X11000Y85500D02*
D03*
Y73500D02*
D03*
X14000Y55500D02*
D03*
Y43500D02*
D03*
X11000Y25500D02*
D03*
X14000Y19500D02*
D03*
X11000Y13500D02*
D03*
X14000Y7500D02*
D03*
X11000Y1500D02*
D03*
X8000Y139500D02*
D03*
X5000Y133500D02*
D03*
X8000Y127500D02*
D03*
X5000Y121500D02*
D03*
X8000Y115500D02*
D03*
X5000Y109500D02*
D03*
X8000Y103500D02*
D03*
X5000Y97500D02*
D03*
Y85500D02*
D03*
Y73500D02*
D03*
Y61500D02*
D03*
X8000Y55500D02*
D03*
X5000Y49500D02*
D03*
X8000Y43500D02*
D03*
X5000Y37500D02*
D03*
Y25500D02*
D03*
X8000Y19500D02*
D03*
X5000Y13500D02*
D03*
X8000Y7500D02*
D03*
X5000Y1500D02*
D03*
X41000Y74500D02*
D03*
X73000Y73000D02*
D03*
X53000Y78000D02*
D03*
X46500Y82000D02*
D03*
X48500Y87500D02*
D03*
X55500Y90000D02*
D03*
X93500Y102000D02*
D03*
X104500Y102500D02*
D03*
X117500Y106000D02*
D03*
X131500Y102500D02*
D03*
X144000Y99500D02*
D03*
X160500Y95000D02*
D03*
X151500Y90000D02*
D03*
X140500Y90500D02*
D03*
X166000Y82500D02*
D03*
X105500Y64000D02*
D03*
X128500Y66000D02*
D03*
X96000Y97000D02*
D03*
X72500Y98500D02*
D03*
X69000Y92500D02*
D03*
X83500Y93500D02*
D03*
X69000Y78000D02*
D03*
X97500Y49000D02*
D03*
X68000Y44500D02*
D03*
Y50000D02*
D03*
X83000Y63000D02*
D03*
X73000Y53500D02*
D03*
X93000D02*
D03*
X92500Y73000D02*
D03*
X72000Y62500D02*
D03*
X26516Y65000D02*
D03*
X26704Y79609D02*
D03*
X25997Y94363D02*
D03*
X154000Y120984D02*
D03*
X138194Y121075D02*
D03*
X122146Y121041D02*
D03*
X107217Y120914D02*
D03*
X92073Y120939D02*
D03*
X76908Y121017D02*
D03*
X62000Y120984D02*
D03*
X46565Y120964D02*
D03*
X30933Y120984D02*
D03*
X110016Y51518D02*
D03*
X114516Y49211D02*
D03*
X106500Y79154D02*
D03*
X155000Y70500D02*
D03*
X150000D02*
D03*
X209500Y16500D02*
D03*
X206000D02*
D03*
X196500D02*
D03*
X193000D02*
D03*
X183500D02*
D03*
X180000D02*
D03*
X170000D02*
D03*
X166500D02*
D03*
X196500Y46500D02*
D03*
X188000D02*
D03*
X178000Y55500D02*
D03*
X172000D02*
D03*
X196500Y88500D02*
D03*
X189000D02*
D03*
X196500Y98500D02*
D03*
X189000D02*
D03*
X196500Y141000D02*
D03*
X189000D02*
D03*
X178500Y108000D02*
D03*
X171500D02*
D03*
X157740Y114016D02*
D03*
X155942Y109944D02*
D03*
X141934Y114107D02*
D03*
X139949Y109562D02*
D03*
X125886Y114072D02*
D03*
X123726Y109643D02*
D03*
X110957Y113946D02*
D03*
X108650Y109446D02*
D03*
X93986Y109470D02*
D03*
X95813Y113970D02*
D03*
X78841Y109548D02*
D03*
X80648Y114048D02*
D03*
X63673Y109500D02*
D03*
X65740Y114016D02*
D03*
X50305Y113995D02*
D03*
X48238Y109479D02*
D03*
X32981Y109500D02*
D03*
X34673Y114016D02*
D03*
X32966Y98104D02*
D03*
X37466Y96277D02*
D03*
X33673Y83349D02*
D03*
X38189Y81282D02*
D03*
X33484Y68740D02*
D03*
X38000Y66673D02*
D03*
X33484Y54240D02*
D03*
X38000Y52173D02*
D03*
X33321Y39119D02*
D03*
X38500Y36673D02*
D03*
X51425Y56000D02*
D03*
X56425Y65000D02*
D03*
D42*
X48158Y60158D02*
D03*
X21000Y60000D02*
D03*
M02*
