G04*
G04 #@! TF.GenerationSoftware,Altium Limited,Altium Designer,21.1.0 (24)*
G04*
G04 Layer_Color=16711935*
%FSLAX25Y25*%
%MOIN*%
G70*
G04*
G04 #@! TF.SameCoordinates,F511F5FD-4682-4DAA-AC6C-A49189F54C52*
G04*
G04*
G04 #@! TF.FilePolarity,Positive*
G04*
G01*
G75*
%ADD12C,0.00787*%
G36*
X52327Y57604D02*
X52357Y57600D01*
X52396Y57596D01*
X52438Y57592D01*
X52484Y57584D01*
X52584Y57561D01*
X52691Y57527D01*
X52745Y57504D01*
X52799Y57477D01*
X52849Y57446D01*
X52899Y57411D01*
X52903Y57408D01*
X52910Y57404D01*
X52922Y57392D01*
X52941Y57377D01*
X52960Y57358D01*
X52987Y57331D01*
X53014Y57304D01*
X53041Y57273D01*
X53072Y57235D01*
X53098Y57196D01*
X53129Y57150D01*
X53160Y57100D01*
X53187Y57051D01*
X53214Y56993D01*
X53260Y56870D01*
X52930Y56793D01*
Y56797D01*
X52926Y56805D01*
X52922Y56820D01*
X52914Y56839D01*
X52903Y56862D01*
X52891Y56889D01*
X52864Y56947D01*
X52830Y57012D01*
X52784Y57081D01*
X52734Y57143D01*
X52672Y57196D01*
X52665Y57200D01*
X52641Y57216D01*
X52607Y57235D01*
X52557Y57262D01*
X52499Y57285D01*
X52426Y57304D01*
X52346Y57319D01*
X52254Y57323D01*
X52227D01*
X52208Y57319D01*
X52181D01*
X52154Y57315D01*
X52085Y57304D01*
X52008Y57289D01*
X51927Y57262D01*
X51847Y57227D01*
X51770Y57181D01*
X51766D01*
X51762Y57174D01*
X51739Y57154D01*
X51705Y57124D01*
X51662Y57081D01*
X51620Y57028D01*
X51574Y56966D01*
X51532Y56889D01*
X51497Y56805D01*
Y56801D01*
X51493Y56793D01*
X51490Y56782D01*
X51486Y56763D01*
X51478Y56743D01*
X51474Y56717D01*
X51459Y56655D01*
X51443Y56582D01*
X51432Y56502D01*
X51424Y56413D01*
X51420Y56321D01*
Y56317D01*
Y56306D01*
Y56290D01*
Y56267D01*
X51424Y56240D01*
Y56206D01*
X51428Y56171D01*
X51432Y56133D01*
X51443Y56045D01*
X51459Y55949D01*
X51482Y55853D01*
X51513Y55760D01*
Y55756D01*
X51516Y55749D01*
X51524Y55737D01*
X51532Y55722D01*
X51551Y55676D01*
X51582Y55626D01*
X51624Y55564D01*
X51674Y55507D01*
X51731Y55449D01*
X51801Y55399D01*
X51804D01*
X51808Y55396D01*
X51820Y55388D01*
X51835Y55380D01*
X51877Y55365D01*
X51931Y55342D01*
X51993Y55323D01*
X52065Y55303D01*
X52146Y55288D01*
X52231Y55284D01*
X52258D01*
X52277Y55288D01*
X52300D01*
X52330Y55292D01*
X52396Y55303D01*
X52469Y55323D01*
X52549Y55353D01*
X52626Y55392D01*
X52703Y55445D01*
X52707Y55449D01*
X52711Y55453D01*
X52734Y55476D01*
X52768Y55515D01*
X52811Y55564D01*
X52853Y55634D01*
X52899Y55714D01*
X52937Y55814D01*
X52968Y55926D01*
X53302Y55841D01*
Y55837D01*
X53298Y55822D01*
X53290Y55803D01*
X53283Y55772D01*
X53267Y55741D01*
X53252Y55699D01*
X53237Y55657D01*
X53214Y55611D01*
X53164Y55507D01*
X53095Y55403D01*
X53018Y55303D01*
X52972Y55257D01*
X52922Y55215D01*
X52918Y55211D01*
X52910Y55207D01*
X52895Y55196D01*
X52872Y55181D01*
X52845Y55165D01*
X52814Y55146D01*
X52780Y55127D01*
X52737Y55107D01*
X52691Y55088D01*
X52641Y55069D01*
X52584Y55050D01*
X52526Y55035D01*
X52400Y55008D01*
X52330Y55004D01*
X52258Y55000D01*
X52219D01*
X52188Y55004D01*
X52154D01*
X52115Y55008D01*
X52069Y55015D01*
X52023Y55019D01*
X51916Y55042D01*
X51804Y55069D01*
X51697Y55111D01*
X51643Y55134D01*
X51593Y55165D01*
X51589Y55169D01*
X51582Y55173D01*
X51570Y55184D01*
X51551Y55196D01*
X51505Y55234D01*
X51451Y55288D01*
X51386Y55353D01*
X51324Y55438D01*
X51259Y55534D01*
X51205Y55645D01*
Y55649D01*
X51201Y55660D01*
X51194Y55676D01*
X51186Y55699D01*
X51175Y55730D01*
X51163Y55764D01*
X51152Y55803D01*
X51140Y55849D01*
X51129Y55895D01*
X51117Y55949D01*
X51094Y56064D01*
X51079Y56187D01*
X51075Y56321D01*
Y56325D01*
Y56340D01*
Y56359D01*
X51079Y56386D01*
Y56421D01*
X51082Y56463D01*
X51086Y56505D01*
X51094Y56555D01*
X51113Y56663D01*
X51136Y56778D01*
X51175Y56897D01*
X51225Y57008D01*
Y57012D01*
X51232Y57020D01*
X51240Y57035D01*
X51251Y57058D01*
X51267Y57081D01*
X51286Y57108D01*
X51336Y57174D01*
X51394Y57246D01*
X51467Y57319D01*
X51555Y57392D01*
X51651Y57454D01*
X51655D01*
X51662Y57462D01*
X51678Y57469D01*
X51701Y57477D01*
X51724Y57488D01*
X51754Y57504D01*
X51793Y57515D01*
X51831Y57531D01*
X51873Y57546D01*
X51920Y57557D01*
X52023Y57584D01*
X52139Y57600D01*
X52261Y57607D01*
X52300D01*
X52327Y57604D01*
D02*
G37*
G36*
X54450Y57573D02*
X54500Y57565D01*
X54558Y57554D01*
X54623Y57538D01*
X54688Y57515D01*
X54754Y57485D01*
X54757D01*
X54761Y57481D01*
X54784Y57469D01*
X54815Y57450D01*
X54853Y57423D01*
X54896Y57389D01*
X54942Y57346D01*
X54984Y57296D01*
X55022Y57243D01*
X55026Y57235D01*
X55038Y57216D01*
X55053Y57185D01*
X55068Y57147D01*
X55084Y57097D01*
X55099Y57043D01*
X55111Y56985D01*
X55115Y56920D01*
Y56912D01*
Y56893D01*
X55111Y56862D01*
X55103Y56824D01*
X55091Y56778D01*
X55076Y56728D01*
X55057Y56674D01*
X55026Y56624D01*
X55022Y56617D01*
X55011Y56601D01*
X54988Y56578D01*
X54961Y56547D01*
X54922Y56513D01*
X54880Y56478D01*
X54826Y56440D01*
X54765Y56409D01*
X54769D01*
X54777Y56406D01*
X54788D01*
X54803Y56398D01*
X54842Y56386D01*
X54892Y56363D01*
X54945Y56336D01*
X55003Y56298D01*
X55061Y56252D01*
X55111Y56194D01*
X55115Y56187D01*
X55130Y56164D01*
X55149Y56129D01*
X55176Y56083D01*
X55199Y56025D01*
X55218Y55956D01*
X55234Y55875D01*
X55237Y55787D01*
Y55783D01*
Y55772D01*
Y55756D01*
X55234Y55734D01*
X55230Y55703D01*
X55226Y55672D01*
X55218Y55634D01*
X55207Y55595D01*
X55180Y55507D01*
X55161Y55457D01*
X55134Y55411D01*
X55107Y55365D01*
X55076Y55319D01*
X55038Y55273D01*
X54995Y55227D01*
X54992Y55223D01*
X54984Y55215D01*
X54972Y55207D01*
X54953Y55192D01*
X54930Y55173D01*
X54899Y55154D01*
X54865Y55134D01*
X54830Y55115D01*
X54788Y55092D01*
X54742Y55073D01*
X54692Y55054D01*
X54638Y55035D01*
X54581Y55019D01*
X54519Y55011D01*
X54454Y55004D01*
X54389Y55000D01*
X54358D01*
X54335Y55004D01*
X54304Y55008D01*
X54273Y55011D01*
X54235Y55015D01*
X54197Y55023D01*
X54108Y55046D01*
X54016Y55085D01*
X53970Y55104D01*
X53928Y55131D01*
X53882Y55161D01*
X53840Y55196D01*
X53836Y55200D01*
X53832Y55203D01*
X53820Y55215D01*
X53805Y55230D01*
X53790Y55253D01*
X53771Y55277D01*
X53747Y55303D01*
X53728Y55334D01*
X53682Y55411D01*
X53644Y55499D01*
X53609Y55599D01*
X53598Y55653D01*
X53590Y55710D01*
X53901Y55753D01*
Y55749D01*
X53905Y55741D01*
Y55726D01*
X53913Y55710D01*
X53924Y55664D01*
X53943Y55607D01*
X53966Y55545D01*
X53997Y55480D01*
X54035Y55422D01*
X54078Y55373D01*
X54085Y55369D01*
X54101Y55353D01*
X54128Y55338D01*
X54166Y55315D01*
X54208Y55296D01*
X54262Y55277D01*
X54323Y55261D01*
X54389Y55257D01*
X54412D01*
X54427Y55261D01*
X54466Y55265D01*
X54515Y55277D01*
X54577Y55296D01*
X54638Y55319D01*
X54700Y55357D01*
X54757Y55407D01*
X54765Y55415D01*
X54780Y55434D01*
X54803Y55465D01*
X54834Y55511D01*
X54861Y55564D01*
X54884Y55630D01*
X54899Y55703D01*
X54907Y55783D01*
Y55787D01*
Y55791D01*
Y55803D01*
X54903Y55818D01*
X54899Y55856D01*
X54888Y55906D01*
X54873Y55960D01*
X54846Y56021D01*
X54811Y56079D01*
X54765Y56133D01*
X54757Y56141D01*
X54742Y56156D01*
X54711Y56175D01*
X54669Y56202D01*
X54619Y56229D01*
X54558Y56248D01*
X54492Y56263D01*
X54416Y56271D01*
X54381D01*
X54354Y56267D01*
X54323Y56263D01*
X54285Y56260D01*
X54243Y56252D01*
X54197Y56240D01*
X54231Y56513D01*
X54251D01*
X54266Y56509D01*
X54316D01*
X54350Y56513D01*
X54400Y56521D01*
X54454Y56532D01*
X54512Y56551D01*
X54573Y56574D01*
X54634Y56609D01*
X54642Y56613D01*
X54661Y56628D01*
X54684Y56655D01*
X54715Y56690D01*
X54746Y56732D01*
X54769Y56786D01*
X54788Y56851D01*
X54796Y56928D01*
Y56932D01*
Y56935D01*
Y56955D01*
X54788Y56985D01*
X54780Y57028D01*
X54769Y57070D01*
X54746Y57116D01*
X54719Y57166D01*
X54681Y57208D01*
X54677Y57212D01*
X54661Y57227D01*
X54634Y57246D01*
X54600Y57266D01*
X54558Y57289D01*
X54508Y57304D01*
X54450Y57319D01*
X54385Y57323D01*
X54354D01*
X54320Y57315D01*
X54281Y57308D01*
X54231Y57296D01*
X54181Y57273D01*
X54131Y57246D01*
X54081Y57208D01*
X54078Y57204D01*
X54062Y57189D01*
X54043Y57162D01*
X54020Y57124D01*
X53993Y57077D01*
X53970Y57020D01*
X53947Y56951D01*
X53932Y56870D01*
X53621Y56924D01*
Y56928D01*
X53625Y56939D01*
X53628Y56955D01*
X53632Y56974D01*
X53640Y57001D01*
X53648Y57031D01*
X53675Y57100D01*
X53705Y57177D01*
X53751Y57258D01*
X53805Y57335D01*
X53874Y57404D01*
X53878Y57408D01*
X53882Y57411D01*
X53893Y57419D01*
X53913Y57431D01*
X53932Y57442D01*
X53955Y57458D01*
X54012Y57492D01*
X54085Y57523D01*
X54174Y57550D01*
X54270Y57569D01*
X54323Y57577D01*
X54412D01*
X54450Y57573D01*
D02*
G37*
G36*
X162386Y86996D02*
X162421D01*
X162463Y86992D01*
X162505Y86989D01*
X162555Y86981D01*
X162663Y86962D01*
X162778Y86939D01*
X162897Y86900D01*
X163008Y86850D01*
X163012D01*
X163020Y86843D01*
X163035Y86835D01*
X163058Y86823D01*
X163081Y86808D01*
X163108Y86789D01*
X163173Y86739D01*
X163246Y86681D01*
X163319Y86608D01*
X163392Y86520D01*
X163454Y86424D01*
Y86420D01*
X163461Y86413D01*
X163469Y86397D01*
X163477Y86374D01*
X163488Y86351D01*
X163504Y86320D01*
X163515Y86282D01*
X163531Y86244D01*
X163546Y86201D01*
X163557Y86155D01*
X163584Y86052D01*
X163600Y85936D01*
X163607Y85813D01*
Y85775D01*
X163603Y85748D01*
X163600Y85717D01*
X163596Y85679D01*
X163592Y85637D01*
X163584Y85591D01*
X163561Y85491D01*
X163527Y85383D01*
X163504Y85330D01*
X163477Y85276D01*
X163446Y85226D01*
X163411Y85176D01*
X163408Y85172D01*
X163404Y85164D01*
X163392Y85153D01*
X163377Y85134D01*
X163358Y85115D01*
X163331Y85088D01*
X163304Y85061D01*
X163273Y85034D01*
X163235Y85003D01*
X163196Y84976D01*
X163150Y84946D01*
X163100Y84915D01*
X163050Y84888D01*
X162993Y84861D01*
X162870Y84815D01*
X162793Y85145D01*
X162797D01*
X162805Y85149D01*
X162820Y85153D01*
X162839Y85161D01*
X162862Y85172D01*
X162889Y85184D01*
X162947Y85211D01*
X163012Y85245D01*
X163081Y85291D01*
X163143Y85341D01*
X163196Y85403D01*
X163200Y85410D01*
X163216Y85433D01*
X163235Y85468D01*
X163262Y85518D01*
X163285Y85575D01*
X163304Y85648D01*
X163319Y85729D01*
X163323Y85821D01*
Y85848D01*
X163319Y85867D01*
Y85894D01*
X163315Y85921D01*
X163304Y85990D01*
X163289Y86067D01*
X163262Y86148D01*
X163227Y86228D01*
X163181Y86305D01*
Y86309D01*
X163173Y86313D01*
X163154Y86336D01*
X163124Y86370D01*
X163081Y86413D01*
X163028Y86455D01*
X162966Y86501D01*
X162889Y86543D01*
X162805Y86578D01*
X162801D01*
X162793Y86581D01*
X162782Y86585D01*
X162762Y86589D01*
X162743Y86597D01*
X162716Y86601D01*
X162655Y86616D01*
X162582Y86631D01*
X162501Y86643D01*
X162413Y86651D01*
X162321Y86654D01*
X162317D01*
X162305D01*
X162290D01*
X162267D01*
X162240Y86651D01*
X162206D01*
X162171Y86647D01*
X162133Y86643D01*
X162044Y86631D01*
X161948Y86616D01*
X161852Y86593D01*
X161760Y86562D01*
X161756D01*
X161749Y86559D01*
X161737Y86551D01*
X161722Y86543D01*
X161676Y86524D01*
X161626Y86493D01*
X161564Y86451D01*
X161507Y86401D01*
X161449Y86343D01*
X161399Y86274D01*
Y86270D01*
X161396Y86267D01*
X161388Y86255D01*
X161380Y86240D01*
X161365Y86198D01*
X161342Y86144D01*
X161322Y86082D01*
X161303Y86009D01*
X161288Y85929D01*
X161284Y85844D01*
Y85817D01*
X161288Y85798D01*
Y85775D01*
X161292Y85744D01*
X161303Y85679D01*
X161322Y85606D01*
X161353Y85526D01*
X161392Y85449D01*
X161445Y85372D01*
X161449Y85368D01*
X161453Y85364D01*
X161476Y85341D01*
X161514Y85307D01*
X161564Y85264D01*
X161634Y85222D01*
X161714Y85176D01*
X161814Y85138D01*
X161925Y85107D01*
X161841Y84773D01*
X161837D01*
X161822Y84777D01*
X161802Y84784D01*
X161772Y84792D01*
X161741Y84807D01*
X161699Y84823D01*
X161657Y84838D01*
X161610Y84861D01*
X161507Y84911D01*
X161403Y84980D01*
X161303Y85057D01*
X161257Y85103D01*
X161215Y85153D01*
X161211Y85157D01*
X161207Y85164D01*
X161196Y85180D01*
X161180Y85203D01*
X161165Y85230D01*
X161146Y85260D01*
X161127Y85295D01*
X161108Y85337D01*
X161088Y85383D01*
X161069Y85433D01*
X161050Y85491D01*
X161035Y85549D01*
X161008Y85675D01*
X161004Y85744D01*
X161000Y85817D01*
Y85856D01*
X161004Y85887D01*
Y85921D01*
X161008Y85959D01*
X161015Y86006D01*
X161019Y86052D01*
X161042Y86159D01*
X161069Y86270D01*
X161111Y86378D01*
X161134Y86432D01*
X161165Y86482D01*
X161169Y86485D01*
X161173Y86493D01*
X161184Y86505D01*
X161196Y86524D01*
X161234Y86570D01*
X161288Y86624D01*
X161353Y86689D01*
X161438Y86751D01*
X161534Y86816D01*
X161645Y86870D01*
X161649D01*
X161660Y86873D01*
X161676Y86881D01*
X161699Y86889D01*
X161730Y86900D01*
X161764Y86912D01*
X161802Y86923D01*
X161849Y86935D01*
X161895Y86946D01*
X161948Y86958D01*
X162064Y86981D01*
X162187Y86996D01*
X162321Y87000D01*
X162325D01*
X162340D01*
X162359D01*
X162386Y86996D01*
D02*
G37*
G36*
X161111Y84527D02*
X161142Y84523D01*
X161177Y84519D01*
X161215Y84508D01*
X161253Y84496D01*
X161257D01*
X161261Y84492D01*
X161284Y84485D01*
X161315Y84469D01*
X161361Y84447D01*
X161411Y84420D01*
X161468Y84381D01*
X161526Y84343D01*
X161588Y84293D01*
X161591D01*
X161595Y84285D01*
X161618Y84266D01*
X161653Y84235D01*
X161699Y84189D01*
X161753Y84132D01*
X161818Y84062D01*
X161891Y83978D01*
X161971Y83886D01*
X161975Y83882D01*
X161987Y83867D01*
X162002Y83847D01*
X162029Y83820D01*
X162056Y83786D01*
X162091Y83748D01*
X162163Y83663D01*
X162252Y83571D01*
X162340Y83479D01*
X162382Y83433D01*
X162425Y83394D01*
X162467Y83360D01*
X162505Y83329D01*
X162509D01*
X162513Y83321D01*
X162524Y83314D01*
X162540Y83306D01*
X162578Y83283D01*
X162628Y83256D01*
X162686Y83229D01*
X162747Y83206D01*
X162816Y83191D01*
X162882Y83183D01*
X162885D01*
X162889D01*
X162912Y83187D01*
X162947Y83191D01*
X162989Y83198D01*
X163039Y83218D01*
X163089Y83241D01*
X163143Y83271D01*
X163193Y83318D01*
X163196Y83325D01*
X163212Y83341D01*
X163231Y83371D01*
X163258Y83410D01*
X163281Y83460D01*
X163300Y83517D01*
X163315Y83586D01*
X163319Y83663D01*
Y83686D01*
X163315Y83701D01*
X163312Y83740D01*
X163304Y83790D01*
X163285Y83847D01*
X163262Y83909D01*
X163227Y83966D01*
X163181Y84020D01*
X163173Y84024D01*
X163158Y84039D01*
X163127Y84062D01*
X163085Y84086D01*
X163031Y84112D01*
X162970Y84132D01*
X162897Y84147D01*
X162812Y84155D01*
X162847Y84473D01*
X162851D01*
X162862D01*
X162882Y84469D01*
X162905Y84466D01*
X162935Y84458D01*
X162970Y84454D01*
X163047Y84431D01*
X163135Y84400D01*
X163223Y84358D01*
X163312Y84301D01*
X163350Y84270D01*
X163388Y84231D01*
X163392Y84228D01*
X163396Y84220D01*
X163408Y84208D01*
X163419Y84193D01*
X163431Y84170D01*
X163450Y84143D01*
X163465Y84112D01*
X163484Y84078D01*
X163500Y84039D01*
X163519Y83997D01*
X163534Y83947D01*
X163546Y83897D01*
X163569Y83782D01*
X163573Y83721D01*
X163577Y83655D01*
Y83621D01*
X163573Y83594D01*
X163569Y83563D01*
X163565Y83529D01*
X163561Y83490D01*
X163550Y83448D01*
X163527Y83356D01*
X163492Y83260D01*
X163469Y83210D01*
X163442Y83164D01*
X163408Y83122D01*
X163373Y83079D01*
X163369Y83076D01*
X163365Y83072D01*
X163354Y83060D01*
X163338Y83045D01*
X163315Y83030D01*
X163292Y83010D01*
X163235Y82972D01*
X163162Y82933D01*
X163077Y82899D01*
X162981Y82872D01*
X162928Y82868D01*
X162874Y82864D01*
X162866D01*
X162847D01*
X162816Y82868D01*
X162778Y82872D01*
X162732Y82880D01*
X162682Y82891D01*
X162628Y82907D01*
X162574Y82930D01*
X162567Y82933D01*
X162548Y82941D01*
X162521Y82956D01*
X162482Y82980D01*
X162436Y83006D01*
X162382Y83041D01*
X162329Y83087D01*
X162267Y83137D01*
X162259Y83145D01*
X162236Y83164D01*
X162202Y83198D01*
X162179Y83222D01*
X162152Y83248D01*
X162121Y83279D01*
X162087Y83318D01*
X162052Y83356D01*
X162010Y83398D01*
X161968Y83444D01*
X161922Y83498D01*
X161875Y83552D01*
X161822Y83613D01*
X161818Y83617D01*
X161810Y83625D01*
X161799Y83640D01*
X161783Y83659D01*
X161745Y83705D01*
X161695Y83763D01*
X161641Y83820D01*
X161588Y83882D01*
X161541Y83932D01*
X161522Y83951D01*
X161503Y83970D01*
X161499Y83974D01*
X161488Y83982D01*
X161472Y83997D01*
X161449Y84016D01*
X161399Y84059D01*
X161338Y84101D01*
Y82860D01*
X161042D01*
Y84531D01*
X161046D01*
X161061D01*
X161084D01*
X161111Y84527D01*
D02*
G37*
G36*
X56886Y64996D02*
X56921D01*
X56959Y64992D01*
X57006Y64985D01*
X57051Y64981D01*
X57159Y64958D01*
X57270Y64931D01*
X57378Y64889D01*
X57432Y64866D01*
X57482Y64835D01*
X57486Y64831D01*
X57493Y64827D01*
X57505Y64816D01*
X57524Y64804D01*
X57570Y64766D01*
X57624Y64712D01*
X57689Y64647D01*
X57750Y64562D01*
X57816Y64466D01*
X57869Y64355D01*
Y64351D01*
X57873Y64340D01*
X57881Y64324D01*
X57889Y64301D01*
X57900Y64271D01*
X57912Y64236D01*
X57923Y64197D01*
X57935Y64151D01*
X57946Y64105D01*
X57958Y64052D01*
X57981Y63936D01*
X57996Y63814D01*
X58000Y63679D01*
Y63675D01*
Y63660D01*
Y63641D01*
X57996Y63614D01*
Y63579D01*
X57992Y63537D01*
X57989Y63495D01*
X57981Y63445D01*
X57962Y63337D01*
X57939Y63222D01*
X57900Y63103D01*
X57850Y62992D01*
Y62988D01*
X57843Y62980D01*
X57835Y62965D01*
X57823Y62942D01*
X57808Y62919D01*
X57789Y62892D01*
X57739Y62827D01*
X57681Y62754D01*
X57608Y62681D01*
X57520Y62608D01*
X57424Y62546D01*
X57420D01*
X57412Y62539D01*
X57397Y62531D01*
X57374Y62523D01*
X57351Y62512D01*
X57320Y62496D01*
X57282Y62485D01*
X57244Y62470D01*
X57201Y62454D01*
X57155Y62443D01*
X57051Y62416D01*
X56936Y62400D01*
X56814Y62393D01*
X56775D01*
X56748Y62397D01*
X56717Y62400D01*
X56679Y62404D01*
X56637Y62408D01*
X56591Y62416D01*
X56491Y62439D01*
X56383Y62473D01*
X56330Y62496D01*
X56276Y62523D01*
X56226Y62554D01*
X56176Y62589D01*
X56172Y62592D01*
X56164Y62596D01*
X56153Y62608D01*
X56134Y62623D01*
X56115Y62642D01*
X56088Y62669D01*
X56061Y62696D01*
X56034Y62727D01*
X56003Y62765D01*
X55976Y62804D01*
X55946Y62850D01*
X55915Y62900D01*
X55888Y62950D01*
X55861Y63007D01*
X55815Y63130D01*
X56145Y63207D01*
Y63203D01*
X56149Y63195D01*
X56153Y63180D01*
X56161Y63161D01*
X56172Y63138D01*
X56184Y63111D01*
X56211Y63053D01*
X56245Y62988D01*
X56291Y62919D01*
X56341Y62857D01*
X56403Y62804D01*
X56410Y62800D01*
X56433Y62784D01*
X56468Y62765D01*
X56518Y62738D01*
X56575Y62715D01*
X56648Y62696D01*
X56729Y62681D01*
X56821Y62677D01*
X56848D01*
X56867Y62681D01*
X56894D01*
X56921Y62685D01*
X56990Y62696D01*
X57067Y62711D01*
X57148Y62738D01*
X57228Y62773D01*
X57305Y62819D01*
X57309D01*
X57313Y62827D01*
X57336Y62846D01*
X57370Y62876D01*
X57412Y62919D01*
X57455Y62972D01*
X57501Y63034D01*
X57543Y63111D01*
X57578Y63195D01*
Y63199D01*
X57582Y63207D01*
X57585Y63218D01*
X57589Y63238D01*
X57597Y63257D01*
X57601Y63284D01*
X57616Y63345D01*
X57631Y63418D01*
X57643Y63499D01*
X57651Y63587D01*
X57654Y63679D01*
Y63683D01*
Y63694D01*
Y63710D01*
Y63733D01*
X57651Y63760D01*
Y63794D01*
X57647Y63829D01*
X57643Y63867D01*
X57631Y63956D01*
X57616Y64052D01*
X57593Y64148D01*
X57562Y64240D01*
Y64244D01*
X57558Y64251D01*
X57551Y64263D01*
X57543Y64278D01*
X57524Y64324D01*
X57493Y64374D01*
X57451Y64436D01*
X57401Y64493D01*
X57343Y64551D01*
X57274Y64601D01*
X57270D01*
X57267Y64605D01*
X57255Y64612D01*
X57240Y64620D01*
X57197Y64635D01*
X57144Y64658D01*
X57082Y64678D01*
X57009Y64697D01*
X56929Y64712D01*
X56844Y64716D01*
X56817D01*
X56798Y64712D01*
X56775D01*
X56744Y64708D01*
X56679Y64697D01*
X56606Y64678D01*
X56525Y64647D01*
X56449Y64608D01*
X56372Y64555D01*
X56368Y64551D01*
X56364Y64547D01*
X56341Y64524D01*
X56307Y64486D01*
X56264Y64436D01*
X56222Y64366D01*
X56176Y64286D01*
X56138Y64186D01*
X56107Y64075D01*
X55773Y64159D01*
Y64163D01*
X55777Y64178D01*
X55784Y64197D01*
X55792Y64228D01*
X55807Y64259D01*
X55823Y64301D01*
X55838Y64343D01*
X55861Y64389D01*
X55911Y64493D01*
X55980Y64597D01*
X56057Y64697D01*
X56103Y64743D01*
X56153Y64785D01*
X56157Y64789D01*
X56164Y64793D01*
X56180Y64804D01*
X56203Y64820D01*
X56230Y64835D01*
X56261Y64854D01*
X56295Y64873D01*
X56337Y64893D01*
X56383Y64912D01*
X56433Y64931D01*
X56491Y64950D01*
X56549Y64965D01*
X56675Y64992D01*
X56744Y64996D01*
X56817Y65000D01*
X56856D01*
X56886Y64996D01*
D02*
G37*
G36*
X54632Y62984D02*
X54636Y62988D01*
X54651Y63003D01*
X54678Y63023D01*
X54713Y63049D01*
X54755Y63084D01*
X54805Y63118D01*
X54863Y63161D01*
X54928Y63199D01*
X54932D01*
X54936Y63203D01*
X54959Y63218D01*
X54993Y63238D01*
X55036Y63261D01*
X55085Y63287D01*
X55139Y63310D01*
X55197Y63337D01*
X55251Y63360D01*
Y63057D01*
X55247D01*
X55239Y63053D01*
X55224Y63046D01*
X55208Y63034D01*
X55185Y63023D01*
X55158Y63011D01*
X55097Y62976D01*
X55028Y62934D01*
X54951Y62884D01*
X54874Y62827D01*
X54801Y62765D01*
X54798Y62761D01*
X54794Y62757D01*
X54771Y62735D01*
X54736Y62700D01*
X54694Y62658D01*
X54648Y62604D01*
X54602Y62546D01*
X54559Y62485D01*
X54525Y62423D01*
X54321D01*
Y64958D01*
X54632D01*
Y62984D01*
D02*
G37*
G36*
X191149Y119701D02*
X191145D01*
X191138D01*
X191122D01*
X191103Y119697D01*
X191080D01*
X191053Y119693D01*
X190992Y119681D01*
X190922Y119670D01*
X190857Y119651D01*
X190800Y119624D01*
X190773Y119608D01*
X190750Y119593D01*
X190746Y119589D01*
X190734Y119574D01*
X190715Y119555D01*
X190700Y119524D01*
X190681Y119485D01*
X190661Y119439D01*
X190650Y119386D01*
X190646Y119324D01*
Y119301D01*
X190650Y119278D01*
X190654Y119251D01*
X190661Y119217D01*
X190669Y119178D01*
X190684Y119144D01*
X190704Y119109D01*
X190707Y119105D01*
X190715Y119094D01*
X190727Y119079D01*
X190746Y119059D01*
X190765Y119036D01*
X190792Y119017D01*
X190823Y118998D01*
X190857Y118983D01*
X190861D01*
X190876Y118975D01*
X190900Y118971D01*
X190934Y118963D01*
X190980Y118956D01*
X191034Y118952D01*
X191099Y118944D01*
X191176D01*
X192915D01*
Y118610D01*
X191195D01*
X191191D01*
X191180D01*
X191164D01*
X191141D01*
X191114Y118614D01*
X191084D01*
X191015Y118618D01*
X190934Y118629D01*
X190853Y118641D01*
X190773Y118660D01*
X190704Y118687D01*
X190696Y118691D01*
X190677Y118702D01*
X190646Y118721D01*
X190608Y118744D01*
X190561Y118779D01*
X190519Y118821D01*
X190477Y118875D01*
X190439Y118932D01*
X190435Y118940D01*
X190423Y118963D01*
X190412Y118998D01*
X190396Y119044D01*
X190377Y119102D01*
X190366Y119167D01*
X190354Y119244D01*
X190350Y119324D01*
Y119355D01*
X190354Y119378D01*
X190358Y119405D01*
X190362Y119439D01*
X190373Y119512D01*
X190396Y119593D01*
X190431Y119677D01*
X190450Y119720D01*
X190477Y119758D01*
X190504Y119797D01*
X190539Y119831D01*
X190542D01*
X190546Y119839D01*
X190558Y119846D01*
X190573Y119858D01*
X190596Y119873D01*
X190619Y119885D01*
X190650Y119904D01*
X190681Y119919D01*
X190719Y119935D01*
X190761Y119950D01*
X190807Y119966D01*
X190861Y119977D01*
X190915Y119989D01*
X190976Y119996D01*
X191038Y120000D01*
X191107D01*
X191149Y119701D01*
D02*
G37*
G36*
X192293Y117949D02*
X192297Y117942D01*
X192305Y117927D01*
X192316Y117911D01*
X192328Y117888D01*
X192340Y117861D01*
X192374Y117800D01*
X192416Y117731D01*
X192466Y117654D01*
X192524Y117577D01*
X192585Y117504D01*
X192589Y117500D01*
X192593Y117496D01*
X192616Y117473D01*
X192650Y117439D01*
X192693Y117396D01*
X192746Y117350D01*
X192804Y117304D01*
X192866Y117262D01*
X192927Y117228D01*
Y117024D01*
X190393D01*
Y117335D01*
X192366D01*
X192362Y117339D01*
X192347Y117354D01*
X192328Y117381D01*
X192301Y117416D01*
X192266Y117458D01*
X192232Y117508D01*
X192190Y117566D01*
X192151Y117631D01*
Y117635D01*
X192148Y117639D01*
X192132Y117661D01*
X192113Y117696D01*
X192090Y117738D01*
X192063Y117788D01*
X192040Y117842D01*
X192013Y117900D01*
X191990Y117953D01*
X192293D01*
Y117949D01*
D02*
G37*
G36*
X191149Y67200D02*
X191145D01*
X191138D01*
X191122D01*
X191103Y67197D01*
X191080D01*
X191053Y67193D01*
X190992Y67181D01*
X190922Y67170D01*
X190857Y67151D01*
X190800Y67124D01*
X190773Y67108D01*
X190750Y67093D01*
X190746Y67089D01*
X190734Y67074D01*
X190715Y67055D01*
X190700Y67024D01*
X190681Y66985D01*
X190661Y66939D01*
X190650Y66886D01*
X190646Y66824D01*
Y66801D01*
X190650Y66778D01*
X190654Y66751D01*
X190661Y66717D01*
X190669Y66678D01*
X190684Y66644D01*
X190704Y66609D01*
X190707Y66605D01*
X190715Y66594D01*
X190727Y66579D01*
X190746Y66559D01*
X190765Y66536D01*
X190792Y66517D01*
X190823Y66498D01*
X190857Y66483D01*
X190861D01*
X190876Y66475D01*
X190900Y66471D01*
X190934Y66463D01*
X190980Y66456D01*
X191034Y66452D01*
X191099Y66444D01*
X191176D01*
X192915D01*
Y66110D01*
X191195D01*
X191191D01*
X191180D01*
X191164D01*
X191141D01*
X191114Y66114D01*
X191084D01*
X191015Y66118D01*
X190934Y66129D01*
X190853Y66141D01*
X190773Y66160D01*
X190704Y66187D01*
X190696Y66191D01*
X190677Y66202D01*
X190646Y66221D01*
X190608Y66244D01*
X190561Y66279D01*
X190519Y66321D01*
X190477Y66375D01*
X190439Y66432D01*
X190435Y66440D01*
X190423Y66463D01*
X190412Y66498D01*
X190396Y66544D01*
X190377Y66602D01*
X190366Y66667D01*
X190354Y66744D01*
X190350Y66824D01*
Y66855D01*
X190354Y66878D01*
X190358Y66905D01*
X190362Y66939D01*
X190373Y67012D01*
X190396Y67093D01*
X190431Y67177D01*
X190450Y67220D01*
X190477Y67258D01*
X190504Y67296D01*
X190539Y67331D01*
X190542D01*
X190546Y67339D01*
X190558Y67347D01*
X190573Y67358D01*
X190596Y67373D01*
X190619Y67385D01*
X190650Y67404D01*
X190681Y67419D01*
X190719Y67435D01*
X190761Y67450D01*
X190807Y67466D01*
X190861Y67477D01*
X190915Y67488D01*
X190976Y67496D01*
X191038Y67500D01*
X191107D01*
X191149Y67200D01*
D02*
G37*
G36*
X190462Y65730D02*
X190492Y65726D01*
X190527Y65722D01*
X190565Y65711D01*
X190604Y65699D01*
X190608D01*
X190611Y65695D01*
X190635Y65688D01*
X190665Y65672D01*
X190711Y65649D01*
X190761Y65622D01*
X190819Y65584D01*
X190876Y65545D01*
X190938Y65496D01*
X190942D01*
X190945Y65488D01*
X190969Y65469D01*
X191003Y65438D01*
X191049Y65392D01*
X191103Y65334D01*
X191168Y65265D01*
X191241Y65181D01*
X191322Y65088D01*
X191326Y65085D01*
X191337Y65069D01*
X191353Y65050D01*
X191379Y65023D01*
X191406Y64989D01*
X191441Y64950D01*
X191514Y64866D01*
X191602Y64774D01*
X191691Y64682D01*
X191733Y64635D01*
X191775Y64597D01*
X191817Y64562D01*
X191856Y64532D01*
X191859D01*
X191863Y64524D01*
X191875Y64516D01*
X191890Y64509D01*
X191929Y64486D01*
X191979Y64459D01*
X192036Y64432D01*
X192097Y64409D01*
X192167Y64394D01*
X192232Y64386D01*
X192236D01*
X192240D01*
X192263Y64390D01*
X192297Y64394D01*
X192340Y64401D01*
X192389Y64420D01*
X192439Y64443D01*
X192493Y64474D01*
X192543Y64520D01*
X192547Y64528D01*
X192562Y64543D01*
X192581Y64574D01*
X192608Y64612D01*
X192631Y64662D01*
X192650Y64720D01*
X192666Y64789D01*
X192670Y64866D01*
Y64889D01*
X192666Y64904D01*
X192662Y64943D01*
X192654Y64992D01*
X192635Y65050D01*
X192612Y65112D01*
X192578Y65169D01*
X192531Y65223D01*
X192524Y65227D01*
X192508Y65242D01*
X192478Y65265D01*
X192435Y65288D01*
X192382Y65315D01*
X192320Y65334D01*
X192247Y65350D01*
X192163Y65357D01*
X192197Y65676D01*
X192201D01*
X192213D01*
X192232Y65672D01*
X192255Y65668D01*
X192286Y65661D01*
X192320Y65657D01*
X192397Y65634D01*
X192485Y65603D01*
X192574Y65561D01*
X192662Y65503D01*
X192700Y65473D01*
X192739Y65434D01*
X192743Y65430D01*
X192746Y65423D01*
X192758Y65411D01*
X192770Y65396D01*
X192781Y65373D01*
X192800Y65346D01*
X192816Y65315D01*
X192835Y65280D01*
X192850Y65242D01*
X192869Y65200D01*
X192885Y65150D01*
X192896Y65100D01*
X192919Y64985D01*
X192923Y64923D01*
X192927Y64858D01*
Y64824D01*
X192923Y64797D01*
X192919Y64766D01*
X192915Y64731D01*
X192912Y64693D01*
X192900Y64651D01*
X192877Y64559D01*
X192842Y64463D01*
X192819Y64413D01*
X192793Y64367D01*
X192758Y64324D01*
X192724Y64282D01*
X192720Y64278D01*
X192716Y64275D01*
X192704Y64263D01*
X192689Y64248D01*
X192666Y64232D01*
X192643Y64213D01*
X192585Y64175D01*
X192512Y64136D01*
X192428Y64102D01*
X192332Y64075D01*
X192278Y64071D01*
X192224Y64067D01*
X192217D01*
X192197D01*
X192167Y64071D01*
X192128Y64075D01*
X192082Y64082D01*
X192032Y64094D01*
X191979Y64109D01*
X191925Y64132D01*
X191917Y64136D01*
X191898Y64144D01*
X191871Y64159D01*
X191833Y64182D01*
X191787Y64209D01*
X191733Y64244D01*
X191679Y64290D01*
X191618Y64340D01*
X191610Y64347D01*
X191587Y64367D01*
X191552Y64401D01*
X191529Y64424D01*
X191502Y64451D01*
X191472Y64482D01*
X191437Y64520D01*
X191402Y64559D01*
X191360Y64601D01*
X191318Y64647D01*
X191272Y64701D01*
X191226Y64754D01*
X191172Y64816D01*
X191168Y64820D01*
X191161Y64827D01*
X191149Y64843D01*
X191134Y64862D01*
X191095Y64908D01*
X191045Y64966D01*
X190992Y65023D01*
X190938Y65085D01*
X190892Y65135D01*
X190873Y65154D01*
X190853Y65173D01*
X190849Y65177D01*
X190838Y65184D01*
X190823Y65200D01*
X190800Y65219D01*
X190750Y65261D01*
X190688Y65304D01*
Y64063D01*
X190393D01*
Y65734D01*
X190396D01*
X190412D01*
X190435D01*
X190462Y65730D01*
D02*
G37*
D12*
X56150Y54425D02*
Y57575D01*
X49850D02*
X56150D01*
X49850Y54425D02*
Y57575D01*
Y54425D02*
X56150D01*
X159425Y90150D02*
X162575D01*
X159425Y83850D02*
Y90150D01*
Y83850D02*
X162575D01*
Y90150D01*
X61150Y63425D02*
Y66575D01*
X54850D02*
X61150D01*
X54850Y63425D02*
Y66575D01*
Y63425D02*
X61150D01*
X169287Y145000D02*
X211413D01*
X169287Y95000D02*
Y145000D01*
Y95000D02*
X211413D01*
Y145000D01*
X169287Y92500D02*
X211413D01*
X169287Y42500D02*
Y92500D01*
Y42500D02*
X211413D01*
Y92500D01*
M02*
