G04*
G04 #@! TF.GenerationSoftware,Altium Limited,Altium Designer,21.1.0 (24)*
G04*
G04 Layer_Color=32896*
%FSLAX25Y25*%
%MOIN*%
G70*
G04*
G04 #@! TF.SameCoordinates,F511F5FD-4682-4DAA-AC6C-A49189F54C52*
G04*
G04*
G04 #@! TF.FilePolarity,Positive*
G04*
G01*
G75*
%ADD10C,0.00984*%
%ADD12C,0.00787*%
%ADD13C,0.00600*%
D10*
X125992Y22071D02*
G03*
X125992Y22071I-492J0D01*
G01*
X112492D02*
G03*
X112492Y22071I-492J0D01*
G01*
X99492D02*
G03*
X99492Y22071I-492J0D01*
G01*
X86492D02*
G03*
X86492Y22071I-492J0D01*
G01*
X73492D02*
G03*
X73492Y22071I-492J0D01*
G01*
X60492D02*
G03*
X60492Y22071I-492J0D01*
G01*
X46992D02*
G03*
X46992Y22071I-492J0D01*
G01*
X51492Y55571D02*
G03*
X51492Y55571I-492J0D01*
G01*
D12*
X119988Y19512D02*
X131012D01*
X119988Y8488D02*
Y19512D01*
Y8488D02*
X131012D01*
X131012Y8488D02*
Y19512D01*
X106488D02*
X117512D01*
X106488Y8488D02*
Y19512D01*
Y8488D02*
X117512D01*
X117512Y8488D02*
Y19512D01*
X93488D02*
X104512D01*
X93488Y8488D02*
Y19512D01*
Y8488D02*
X104512D01*
X104512Y8488D02*
Y19512D01*
X80488D02*
X91512D01*
X80488Y8488D02*
Y19512D01*
Y8488D02*
X91512D01*
X91512Y8488D02*
Y19512D01*
X67488D02*
X78512D01*
X67488Y8488D02*
Y19512D01*
Y8488D02*
X78512D01*
X78512Y8488D02*
Y19512D01*
X54488D02*
X65512D01*
X54488Y8488D02*
Y19512D01*
Y8488D02*
X65512D01*
X65512Y8488D02*
Y19512D01*
X40988D02*
X52012D01*
X40988Y8488D02*
Y19512D01*
Y8488D02*
X52012D01*
X52012Y8488D02*
Y19512D01*
X45488Y53012D02*
X56512D01*
X45488Y41988D02*
Y53012D01*
Y41988D02*
X56512D01*
X56512Y41988D02*
Y53012D01*
D13*
X115832Y31001D02*
Y33667D01*
X114499Y34999D01*
X113166Y33667D01*
Y31001D01*
Y33000D01*
X115832D01*
X111833Y31001D02*
X110500D01*
X111167D01*
Y34999D01*
X111833Y34333D01*
X108501Y31001D02*
X107168D01*
X107834D01*
Y34999D01*
X108501Y34333D01*
X102332Y31001D02*
Y33667D01*
X100999Y34999D01*
X99666Y33667D01*
Y31001D01*
Y33000D01*
X102332D01*
X98334Y31667D02*
X97667Y31001D01*
X96334D01*
X95668Y31667D01*
Y34333D01*
X96334Y34999D01*
X97667D01*
X98334Y34333D01*
Y33667D01*
X97667Y33000D01*
X95668D01*
X88832Y31001D02*
Y33667D01*
X87499Y34999D01*
X86166Y33667D01*
Y31001D01*
Y33000D01*
X88832D01*
X84834Y34999D02*
X82168D01*
Y34333D01*
X84834Y31667D01*
Y31001D01*
X75832D02*
Y33667D01*
X74499Y34999D01*
X73166Y33667D01*
Y31001D01*
Y33000D01*
X75832D01*
X69168Y34999D02*
X71833D01*
Y33000D01*
X70501Y33667D01*
X69834D01*
X69168Y33000D01*
Y31667D01*
X69834Y31001D01*
X71167D01*
X71833Y31667D01*
X49166Y31001D02*
Y33667D01*
X47833Y34999D01*
X46500Y33667D01*
Y31001D01*
Y33000D01*
X49166D01*
X45167Y31001D02*
X43834D01*
X44501D01*
Y34999D01*
X45167Y34333D01*
X63332Y31001D02*
Y33667D01*
X61999Y34999D01*
X60666Y33667D01*
Y31001D01*
Y33000D01*
X63332D01*
X59333Y34333D02*
X58667Y34999D01*
X57334D01*
X56668Y34333D01*
Y33667D01*
X57334Y33000D01*
X58001D01*
X57334D01*
X56668Y32334D01*
Y31667D01*
X57334Y31001D01*
X58667D01*
X59333Y31667D01*
X40501Y44168D02*
X43166D01*
X44499Y45501D01*
X43166Y46834D01*
X40501D01*
X42500D01*
Y44168D01*
X43833Y48166D02*
X44499Y48833D01*
Y50166D01*
X43833Y50832D01*
X41167D01*
X40501Y50166D01*
Y48833D01*
X41167Y48166D01*
X43833D01*
M02*
