M48
;Layer_Color=9474304
;FILE_FORMAT=2:5
INCH,LZ
;TYPE=PLATED
T1F00S00C0.00780
T2F00S00C0.02800
T3F00S00C0.03543
%
T01
X0005Y00015
X0011
X0017
X0023
X0029
X0035
X0041
X0047
X0053
X005Y00075
X0044
X0038
X0032
X0026
X002
X0014
X0008
X0011Y00135
X0017
X0023
X0029
X0035
X0041
X0044Y00195
X0038
X0032
X0026
X002
X0014
X0008
X0011Y00255
X0017
X0023
X0029
X0035
X0041
X00385Y0036673
X0038Y00435
X0044
X0047Y00375
X0033321Y0039119
X0026Y00435
X002
X0014
X0008
X0005Y00495
X0008Y00555
X0014
X002
X0026
X0033484Y005424
X0038Y00555
Y0052173
Y0066673
X0033484Y006874
X0029Y00735
X0026704Y0079609
X0032Y00795
X0033673Y0083349
X0038189Y0081282
X0041Y00855
X0044Y00915
X00485Y00875
X00465Y0082
X0053Y0078
X0041Y00745
X0029Y00855
X0025997Y0094363
X0026Y01035
X0014
X0008
X0011Y01095
X0005
Y00975
Y00855
X0011
Y00735
X0005
Y00615
Y00375
Y00255
Y00135
X002Y00315
X0026
X0026516Y0065
X0051425Y0056
X0053Y00135
X0047Y00975
X005Y01035
X0048238Y0109479
X0053Y01095
X0041
X0032981
X0032966Y0098104
X0037466Y0096277
X0059Y00975
X0065
X00725Y00985
X0069Y00925
X0068Y01035
X0071Y01095
X0063673
X0056Y01035
X00555Y009
X0069Y0078
X0073Y0073
X0077Y00735
X0083
X0089
X00925Y0073
X0092Y00675
X0086
X008
X0074
X0072Y00625
X0077Y00615
X0083Y0063
X0089Y00615
X0086Y00555
X008
X0073Y00535
X0068Y005
Y00445
Y00315
Y00195
X0074
X0086
X0098
X011
X0107Y00255
Y00135
X011Y00075
X0116
X0122
X0128
X0134
X014
X0146
X0152
X0158
X0164
X017
X0176
X0182
X0188
X0194
X02
X0206
X0209Y00015
X0203
X0197
X0191
X0185
X0179
X0173
X0167
X0161
X0155
X0149
X0143
X0137
X0131
X0125
X0119
X0113
X0107
X0101
X0095
X0089
X0083
X0077
X0071
X0065
X0059
X0062Y00075
X0068
X0074
X008
X0086
X0092
X0098
X0104
X0119Y00135
X0122Y00195
X0134
X014
X0146
X0149Y00255
X0155
X0158Y00315
X0164
X017
X0176
X0182
X0188
X0194
X02
X0197Y00375
X0191
X0185
X0179
X0173
X0167
X0161
X0155
X0149
X0143
X0137
X0131
X0125
X0119
X0122Y00435
X0128
X0134
X014
X0146
X0152
X0158
X0164
X017
X0176
X0182
X0179Y00495
X0173
X0167
X0161
X0155
X0149
X0143
X0146Y00555
X0152
X0158
X0164
X0172
X0178
X0188
X0194
X02
X0197Y00615
X0191
X0185
X0188Y00675
X0194
X02
X0197Y00735
X0191
X0185
X0182Y00675
X0176
X0164
X0158
X0155Y00705
X015
X0146Y00675
X014
X0143Y00735
X0146Y00795
X01515Y009
X0158Y00915
X01605Y0095
X0161Y00975
X0167
X0173
X0179
X0182Y01035
X0176
X017
X01715Y0108
X01785
X0185Y01095
X0191
X0197
X01965Y00985
X0189
Y00885
X01965
X0182Y00915
X0176
X0179Y00855
X0166Y00825
X0167Y00615
X0161
X0155
X0149
X0143
X0137
X01285Y0066
X01055Y0064
X0107Y00495
X0110016Y0051518
X0114516Y0049211
X0116Y00435
X0101Y00495
X00975Y0049
X0093Y00535
X01065Y0079154
X01045Y01025
X0101Y01095
X0093986Y010947
X00935Y0102
X0096Y0097
X0083Y00975
X00835Y00935
X0086Y01035
X008
X0078841Y0109548
X0083Y01095
X010865Y0109446
X0113Y01095
X01175Y0106
X0123726Y0109643
X01315Y01025
X0134Y01035
X0139949Y0109562
X0143Y01095
X0144Y00995
X0152Y01035
X0155942Y0109944
X01405Y00905
X014Y00315
X0146
X0152
X0143Y00255
X0137
X0131
X0134Y00315
X0128
X0131Y00135
X0137
X0143
X0149
X0155
X0161
X01665Y00165
X017
X0176Y00195
X018Y00165
X01835
X0188Y00195
X0193Y00165
X01965
X02Y00195
X0206Y00165
X02095
X01965Y00465
X0188
X0056425Y0065
X0056Y00195
X0062
X0065Y00135
X0056Y00075
X0212
Y00315
Y00435
Y00555
Y00675
Y00795
Y00915
Y01035
Y01155
Y01275
Y01395
X0206
X0209Y01335
X02Y01275
X0194
X0188
X0182
X0185Y01215
X0191
X0197
X02Y01155
X0194
X0188
X0164
X015774Y0114016
X0154Y0120984
X0149Y01215
X0143
X0138194Y0121075
X0131Y01215
X0122146Y0121041
X0122Y01155
X0125886Y0114072
X0110957Y0113946
X0113Y01215
X0107217Y0120914
X0101Y01215
X0092073Y0120939
X0092Y01155
X0095813Y011397
X0080648Y0114048
X0083Y01215
X0076908Y0121017
X0071Y01215
X0062Y0120984
Y01155
X006574Y0114016
X0071Y01335
X0068Y01395
X0056
X0086
X0083Y01335
X0101
X0098Y01395
X0116
X0113Y01335
X0131
X0128Y01395
X0146
X0149Y01335
X0143
X0161
X0164Y01395
X017
X0176
X0182
X0189Y0141
X01965
X0161Y01215
X0146Y01155
X0141934Y0114107
X0050305Y0113995
X0053Y01215
X0046565Y0120964
X0041Y01215
X0035
X0030933Y0120984
X0034673Y0114016
X0014Y01155
X0008
X0011Y01215
X0005
X0008Y01275
X0014
X0017Y01335
X0023
X0026Y01395
X002
X0014
X0008
X0011Y01335
X0005
X0041
X0038Y01395
X0053Y01335
T02
X0021Y006
X0048158Y0060158
T03
X00125Y0035
Y00505
Y0065
X0012642Y0079609
X0012505Y0093642
X0051Y00475
X00465Y0027
Y0014
X006
X0073
X0086
X0099
X0112
Y0027
X0099
X0086
X0073
X006
X01255Y0014
X01555Y0019
X0136516Y0052691
X01145Y0077
X0107217Y013518
X0122146Y013518
X01375
X0154
X0092313Y0135
X0077167Y0135048
X0062335Y0135096
X0046399
X0031308Y0135
M30
